<svg id="Layer_1" data-name="Layer 1" xmlns="http://www.w3.org/2000/svg" viewBox="0 0 100 100"><defs><style>.cls-1{fill:#94cee6;}.cls-2{fill:#4aa5c1;}.cls-3{fill:#e64855;}.cls-4{fill:#a6384c;}.cls-5{fill:#23ab6e;}.cls-6{fill:#1b8452;}</style></defs><title>Artboard 1</title><polygon class="cls-1" points="25.73 43.21 25.73 78.34 39.55 78.34 39.55 33.57 26.03 43.21 25.73 43.21"/><polygon class="cls-2" points="25.73 68.5 25.73 78.34 25.73 87.98 26.03 87.98 39.55 78.34 39.55 78.14 25.73 68.5"/><polygon class="cls-3" points="42.16 32.62 42.16 67.75 55.98 67.75 55.98 22.98 42.46 32.62 42.16 32.62"/><polygon class="cls-4" points="42.16 57.9 42.16 67.75 42.16 77.39 42.46 77.39 55.98 67.75 55.98 67.54 42.16 57.9"/><polygon class="cls-5" points="59.09 21.15 59.09 56.28 72.9 56.28 72.9 11.51 59.38 21.15 59.09 21.15"/><polygon class="cls-6" points="59.09 46.44 59.09 56.28 59.09 65.92 59.38 65.92 72.9 56.28 72.9 56.08 59.09 46.44"/></svg>